# xmcd
#
# Track frame offsets: 
#        150
#        20339
#        40954
#        69188
#        92282
#        109675
#        135000
#        152993
#        174720
#        197654
#
# Disc length: 2884 seconds
#
# Revision: 0
# Processed by: cddbd v1.5.2PL0 Copyright (c) Steve Scherf et al.
# Submitted via: ExactAudioCopy v1.0b3
#
DISCID=720b420a
DTITLE=Rick Stel - Straight From The Soul
DYEAR=2003
DGENRE=Blues
TTITLE0=One Way Lovin
TTITLE1=Ain't Got No More Tears
TTITLE2=Straight From The Soul
TTITLE3=To Love You Just One More Time
TTITLE4=Any Womans Boogie
TTITLE5=Long Distance lover
TTITLE6=Why Can't I Talk To You
TTITLE7=I'd never Let You Go
TTITLE8=Allman Joy
TTITLE9=Missing You
EXTD=
EXTT0=
EXTT1=
EXTT2=
EXTT3=
EXTT4=
EXTT5=
EXTT6=
EXTT7=
EXTT8=
EXTT9=
PLAYORDER=
